
<svg height="750" viewBox="-80 0 511 511.99961" width="750" xmlns="http://www.w3.org/2000/svg">
  <g id="full">
    <path stroke="#ffffff" stroke-width="4" stroke-miterlimit="10" d="m125.5 502c-13.808594 0-25-11.195312-25-25v-50h50v50c0 13.804688-11.191406 25-25 25zm0 0" fill="#ffffff"/>
    <path stroke="#ffffff" stroke-width="4" stroke-miterlimit="10" d="m175.5 502c-13.808594 0-25-11.195312-25-25v-50h50v50c0 13.804688-11.191406 25-25 25zm0 0" fill="#ffffff"/>
    <path stroke="#ffffff" stroke-width="4" stroke-miterlimit="10" d="m225.5 502c-13.808594 0-25-11.195312-25-25v-50h50v50c0 13.804688-11.191406 25-25 25zm0 0" fill="#ffffff"/>
    <path stroke="#ffffff" stroke-width="4" stroke-miterlimit="10" d="m283.457031 488.832031c-12.976562 4.722657-27.320312-1.964843-32.042969-14.941406l-27.363281-75.175781 46.984375-17.097656 27.363282 75.171874c4.722656 12.976563-1.96875 27.320313-14.941407 32.042969zm0 0" fill="#ffffff"/>
    <path stroke="#ffffff" stroke-width="4" stroke-miterlimit="10" d="m67.507812 488.832031c12.972657 4.722657 27.320313-1.964843 32.042969-14.941406l27.363281-75.175781-46.984374-17.097656-27.363282 75.171874c-4.722656 12.976563 1.964844 27.320313 14.941406 32.042969zm0 0" fill="#ffffff"/>  
  </g>
  <g id="new">
    <path stroke="#ffffff" stroke-width="4" stroke-miterlimit="10" d="m340.5 277c0 91.125-85 175-165 175s-165-83.875-165-175c0-91.128906 73.871094-155 165-155 91.125 0 165 63.871094 165 155zm0 0" fill="#ffffff"/>
    <path stroke="#ffffff" stroke-width="4" stroke-miterlimit="10" d="m65.5 280c0-84 54.773438-120 110-120s110 33 110 120-110 132-110 132-110-48-110-132zm0 0" fill="#ffffff"/>
    <path stroke="#ffffff" stroke-width="4" stroke-miterlimit="10" d="m175.5 324c5.511719 0 10-4.492188 10-10v-34c0-5.511719-4.488281-10-10-10s-10 4.488281-10 10v34c0 5.507812 4.488281 10 10 10zm0 0" fill="#ffffff"/>
    <path stroke="#ffffff" stroke-width="4" stroke-miterlimit="10" d="m175.5 369c5.511719 0 10-4.492188 10-10 0-5.511719-4.488281-10-10-10s-10 4.488281-10 10c0 5.507812 4.488281 10 10 10zm0 0" fill="#ffffff"/>
    <path stroke="#ffffff" stroke-width="4" stroke-miterlimit="10" d="m235.5 260.609375h.03125c5.519531-.019531 9.988281-4.519531 9.96875-10.039063-.019531-5.492187-4.5-9.960937-10-9.960937h-.03125c-5.449219 0-9.988281 4.59375-9.96875 10.03125.019531 5.496094 4.511719 9.96875 10 9.96875zm0 0" fill="#ffffff"/>
    <path stroke="#ffffff" stroke-width="4" stroke-miterlimit="10" d="m210.167969 338.460938c4.523437 2.839843 10.863281 1.515624 13.792969-3.132813 7.078124-11.238281 12.46875-23.898437 16.039062-37.628906 1.371094-5.277344-1.886719-10.835938-7.160156-12.199219-5.054688-1.308594-10.808594 1.820312-12.191406 7.160156-3.058594 11.738282-7.636719 22.507813-13.609376 32.007813-2.902343 4.625-1.484374 10.890625 3.128907 13.792969zm0 0" fill="#ffffff"/>
    <path stroke="#ffffff" stroke-width="4" stroke-miterlimit="10" d="m115.460938 260.609375.039062-.050781v.050781c5.488281 0 9.980469-4.46875 10-9.960937.019531-5.507813-4.441406-10.019532-9.960938-10.039063h-.039062c-5.488281 0-9.980469 4.460937-10 9.949219-.019531 5.449218 4.515625 10.03125 9.960938 10.050781zm0 0" fill="#ffffff"/>
    <path stroke="#ffffff" stroke-width="4" stroke-miterlimit="10" d="m118.160156 285.5c-5.3125 1.34375-8.527344 6.917969-7.160156 12.199219 3.570312 13.730469 8.96875 26.390625 16.039062 37.628906 2.898438 4.609375 9.191407 6.035156 13.789063 3.132813 4.671875-2.929688 6.070313-9.121094 3.140625-13.792969-5.980469-9.496094-10.558594-20.265625-13.609375-32.007813-1.316406-5.0625-7.117187-8.445312-12.199219-7.160156zm0 0" fill="#ffffff"/>
    <g id="initial">
      <path stroke="#000000" stroke-width="4" stroke-miterlimit="10" d="m235.5 40c-22.511719 0-97.488281 0-120 0-55.230469 0-100 44.769531-100 100s44.773438 100 100 100c22.511719 0 43.285156-7.441406 60-19.996094 16.710938 12.554688 37.488281 19.996094 60 19.996094 55.226562 0 100-44.769531 100-100s-44.773438-100-100-100zm0 0" fill="#ffffff"/> 
      <path stroke="#000000" stroke-width="4" stroke-miterlimit="10" d="m125.5 180c0-33.136719 16.863281-40 50-40s50 6.863281 50 40-50 60-50 60-50-26.863281-50-60zm0 0" fill="#ffffff"/>
      <path stroke="#000000" stroke-width="4" stroke-miterlimit="10" d="m35.5 10s26.863281 20 60 20 50 26.863281 50 60c0 0-26.863281 10-60 10-18.292969 0-49.679688-30-49.679688-52s-.320312-38-.320312-38zm0 0" fill="#ffffff"/>
      <path stroke="#000000" stroke-width="4" stroke-miterlimit="10" d="m315.5 10s-26.863281 20-60 20-50 26.863281-50 60c0 0 26.863281 10 60 10 18.292969 0 49.679688-30 49.679688-52s.320312-38 .320312-38zm0 0" fill="#ffffff"/>
      <path stroke="#000000" stroke-width="4" stroke-miterlimit="10" d="m295.5 140c0 33.136719-26.863281 60-60 60s-60-26.863281-60-60 26.863281-60 60-60 60 26.863281 60 60zm0 0" fill="#ffffff"/>
      <path stroke="#000000" stroke-width="4" stroke-miterlimit="10" d="m255.5 140c0 11.046875-8.953125 20-20 20s-20-8.953125-20-20 8.953125-20 20-20 20 8.953125 20 20zm0 0" fill="#ffffff"/>
      <path stroke="#000000" stroke-width="4" stroke-miterlimit="10" d="m175.5 140c0 33.136719-26.863281 60-60 60s-60-26.863281-60-60 26.863281-60 60-60 60 26.863281 60 60zm0 0" fill="#ffffff"/>
      <path stroke="#000000" stroke-width="4" stroke-miterlimit="10" d="m135.5 140c0 11.046875-8.953125 20-20 20s-20-8.953125-20-20 8.953125-20 20-20 20 8.953125 20 20zm0 0" fill="#ffffff"/>
      <path stroke="#000000" stroke-width="4" stroke-miterlimit="10" d="m235.5 110c-16.542969 0-30 13.457031-30 30s13.457031 30 30 30 30-13.457031 30-30-13.457031-30-30-30zm0 40c-5.515625 0-10-4.488281-10-10 0-5.515625 4.484375-10 10-10s10 4.484375 10 10c0 5.511719-4.484375 10-10 10zm0 0" fill="#ffffff"/>   
      <path stroke="#000000" stroke-width="4" stroke-miterlimit="10" d="m85.5 140c0 16.542969 13.457031 30 30 30s30-13.457031 30-30-13.457031-30-30-30-30 13.457031-30 30zm40 0c0 5.511719-4.484375 10-10 10s-10-4.488281-10-10c0-5.515625 4.484375-10 10-10s10 4.484375 10 10zm0 0" fill="#ffffff"/>
    </g>
  </g> 
</svg>